<?xml version="1.0" encoding="utf-8"?>
<!-- Generator: Adobe Illustrator 23.0.2, SVG Export Plug-In . SVG Version: 6.00 Build 0)  -->
<svg version="1.1" id="Layer_1" xmlns="http://www.w3.org/2000/svg" xmlns:xlink="http://www.w3.org/1999/xlink" x="0px" y="0px"
	 viewBox="0 0 132.2 132.3" style="enable-background:new 0 0 132.2 132.3;" xml:space="preserve">
<style type="text/css">
	.st0{fill:#FFFFFF;}
</style>
<title>Asset 1</title>
<g>
	<g id="Layer_1-2">
		<path class="st0" d="M118.6,106.6l-1.6,1.8l-3.5-1.8c-0.2-0.1-0.4-0.2-0.6-0.4l0,0c0.2,0.2,0.3,0.4,0.4,0.6l1.9,3.6l-1.8,1.9
			l-3.7-1.6c-0.2-0.1-0.5-0.2-0.7-0.3l0,0c0.2,0.2,0.3,0.4,0.4,0.6l2,3.4l-1.7,1.8l-3.3-6.3l1.9-2l3.7,1.7c0.2,0.1,0.4,0.2,0.6,0.3
			l0,0c-0.1-0.2-0.3-0.3-0.4-0.5l-1.9-3.6l1.9-2L118.6,106.6z"/>
		<path class="st0" d="M100.7,115.9l2.6-1.9l-0.3-1.3l2.1-1.6l1.5,7.3l-2.5,1.9l-6.5-3.6l2.1-1.5L100.7,115.9z M102,116.7l1.1,0.7
			c0.5,0.2,0.9,0.5,1.3,0.9l0,0c-0.2-0.5-0.4-1-0.5-1.5l-0.3-1.2L102,116.7z"/>
		<path class="st0" d="M93.6,124.2l2.3-1.2l-2.3-4.3l2.1-1.2l2.3,4.3l2.3-1.2l0.9,1.6l-6.7,3.7L93.6,124.2z"/>
		<path class="st0" d="M91.8,123.4c0.7,2-0.5,4.1-3,5c-2.1,0.8-4,0.4-5-0.9l2.2-1.3c0.5,0.7,1.4,0.9,2.1,0.5
			c0.9-0.2,1.5-1.2,1.3-2.1c0-0.1-0.1-0.2-0.1-0.3c-0.3-0.9-1.3-1.4-2.2-1.1c-0.1,0-0.2,0.1-0.3,0.1c-0.9,0.3-1.4,1-1.3,1.8
			l-2.5,0.3c0-1.7,1.2-3,3.3-3.8C88.9,120.7,91,121.4,91.8,123.4z"/>
		<path class="st0" d="M72.9,125.2l2.4-0.4l0.5,2.6l3.2-0.6l-0.5-2.6l2.4-0.4l1.2,6.6l-2.4,0.4l-0.5-2.5l-3.2,0.6l0.5,2.5l-2.4,0.4
			L72.9,125.2z"/>
		<path class="st0" d="M59.2,130.1l2.6,0.1l0.2-4.9l2.4,0.1l-0.2,4.9l2.6,0.1l-0.1,1.9l-7.6-0.4L59.2,130.1z"/>
		<path class="st0" d="M50.1,123.4l2.4,0.5l-0.5,2.5l3.2,0.7l0.5-2.5L58,125l-1.4,6.6l-2.4-0.5l0.5-2.5l-3.2-0.6l-0.5,2.5l-2.4-0.5
			L50.1,123.4z"/>
		<path class="st0" d="M41,121.8l0.6-1.5l6.6,2.5l-2.4,6.3l-6.6-2.5l0.6-1.5l4.3,1.7l0.3-0.9l-4.2-1.6l0.5-1.4l4.1,1.6l0.4-0.9
			L41,121.8z"/>
		<path class="st0" d="M28.3,112l2,1.4l-1.5,2.1l2.6,1.9l1.5-2.1l2,1.4l-3.9,5.5l-2-1.4l1.5-2.1l-2.6-1.9l-1.5,2.1l-2-1.4L28.3,112z
			"/>
		<path class="st0" d="M26.8,110.6l-4.6,5l-1.8-1.7l4.6-5L26.8,110.6z"/>
		<path class="st0" d="M21.4,110.1c-1.6,1.4-4,1.1-5.8-1c-1.4-1.6-1.8-3.4-1-4.6l2,1.7c-0.3,0.6-0.2,1.4,0.3,1.8
			c0.6,0.8,1.7,1,2.5,0.4c0.1-0.1,0.2-0.2,0.3-0.2c0.8-0.6,1-1.7,0.4-2.5c-0.1-0.1-0.1-0.2-0.2-0.2c-0.8-0.9-1.6-1-2.1-0.8l0,0
			l1.4,1.7l-1.1,0.9l-2.9-3.4l3-2.5l1.2,1.4l-0.8,0.8c1.2-0.1,2.3,0.4,2.9,1.3C23.1,106.8,22.9,108.8,21.4,110.1z"/>
		<path class="st0" d="M13.1,93l1.2,2.1l-2.2,1.3l1.7,2.8l2.2-1.3l1.2,2.1l-5.8,3.4l-1.2-2.1l2.2-1.3l-1.7-2.8l-2.2,1.3l-1.2-2.1
			L13.1,93z"/>
		<path class="st0" d="M6,93.7l-0.9-2.2l4.5-1.8l-1.6-4L9.8,85l2.5,6.2L6,93.7z"/>
		<path class="st0" d="M9.4,83.4l-6.5,1.8l-0.7-2.3l6.5-1.8L9.4,83.4z"/>
		<path class="st0" d="M5,80.2c-2.1,0.3-4-1.1-4.4-3.9c-0.3-2.1,0.2-3.9,1.5-4.5L3,74.4c-0.6,0.4-0.9,1.1-0.7,1.7
			c0.1,1,0.9,1.7,1.9,1.7c0.1,0,0.2,0,0.4-0.1c1-0.1,1.7-0.9,1.6-1.9c0-0.1,0-0.2-0.1-0.3c-0.2-1.2-0.8-1.7-1.3-1.7l0,0L5.1,76
			l-1.4,0.2L3,71.7l3.8-0.6l0.3,1.8L6,73.2c1.1,0.5,1.8,1.5,1.8,2.7C8.2,78.3,6.9,79.9,5,80.2z"/>
		<path class="st0" d="M6.8,61.3v2.4H4.2V67h2.6v2.4L0,69.3v-2.4h2.5v-3.2H0v-2.4H6.8z"/>
		<path class="st0" d="M3.4,51.6L3,54.2L7.8,55l-0.4,2.4l-4.8-0.8l-0.4,2.6l-1.8-0.3l1.3-7.5L3.4,51.6z"/>
		<path class="st0" d="M7.2,51.8l-0.8-1.9c0.9-0.5,1.6-1.4,1.9-2.4c0.3-1,0.3-1.5-0.1-1.6S7.8,46,7.6,46.5l-0.8,1.8
			C6,49.9,5.2,50.5,4,50.1s-1.7-2-0.9-4.3c0.4-1.3,1.1-2.5,2.2-3.4l1,1.7c-0.8,0.6-1.4,1.4-1.7,2.3c-0.2,0.8-0.2,1.2,0.1,1.3
			s0.4-0.1,0.7-0.7L6,45.5c0.8-1.8,1.6-2.4,2.8-2c1.5,0.5,1.9,2.2,1.1,4.6C9.4,49.6,8.5,50.9,7.2,51.8z"/>
		<path class="st0" d="M10.9,36.2c-0.7-0.4-0.9-1.3-0.5-1.9s1.3-0.9,1.9-0.5c0.7,0.4,0.9,1.2,0.5,1.8c0,0,0,0.1-0.1,0.1
			C12.5,36.3,11.7,36.5,10.9,36.2C11,36.2,11,36.2,10.9,36.2z"/>
		<path class="st0" d="M13.7,25.4l1.7-1.8l3.5,1.8c0.2,0.1,0.4,0.2,0.6,0.4l0,0c-0.2-0.2-0.3-0.4-0.4-0.6l-1.8-3.5l1.8-1.9l3.6,1.6
			c0.2,0.1,0.5,0.2,0.7,0.4l0,0c-0.2-0.2-0.3-0.4-0.4-0.6l-2-3.5l1.7-1.8l3.3,6.3l-1.9,2l-3.6-1.7c-0.2-0.1-0.4-0.2-0.6-0.3l0,0
			c0.1,0.2,0.3,0.3,0.4,0.5l1.9,3.6l-1.9,2L13.7,25.4z"/>
		<path class="st0" d="M31.7,16.2l-2.5,1.9l0.3,1.3L27.4,21L26,13.7l2.5-1.9l6.5,3.6L32.9,17L31.7,16.2z M30.4,15.4l-1.1-0.7
			c-0.5-0.2-0.9-0.5-1.3-0.9l0,0c0.2,0.5,0.4,1,0.5,1.5l0.3,1.2L30.4,15.4z"/>
		<path class="st0" d="M38.9,7.8L36.6,9l2.4,4.3l-2.1,1.1l-2.3-4.3l-2.3,1.2l-0.9-1.6l6.7-3.6L38.9,7.8z"/>
		<path class="st0" d="M40.7,8.7c-0.7-2,0.5-4.1,3-5c2.1-0.8,4-0.4,5,0.9L46.5,6c-0.5-0.7-1.4-0.9-2.1-0.5c-0.9,0.2-1.6,1.1-1.3,2.1
			c0,0.1,0,0.2,0.1,0.3c0.3,0.9,1.3,1.4,2.2,1.1c0.1,0,0.2-0.1,0.3-0.1c1-0.3,1.4-1,1.3-1.8l2.5-0.3c0,1.7-1.2,3-3.3,3.8
			C43.5,11.5,41.4,10.8,40.7,8.7z"/>
		<path class="st0" d="M59.6,7.1l-2.4,0.4L56.7,5l-3.2,0.6L54,8.1l-2.4,0.4l-1.2-6.6l2.4-0.4L53.3,4l3.2-0.6L56,0.9l2.4-0.4
			L59.6,7.1z"/>
		<path class="st0" d="M73.4,2.3l-2.6-0.1L70.5,7l-2.4-0.1L68.3,2l-2.6-0.1L65.8,0l7.6,0.4V2.3z"/>
		<path class="st0" d="M82.4,9L80,8.5L80.5,6l-3.2-0.7l-0.5,2.5l-2.4-0.5l1.4-6.6l2.4,0.5l-0.5,2.5l3.2,0.7l0.5-2.5l2.4,0.5L82.4,9z
			"/>
		<path class="st0" d="M91.5,10.6l-0.6,1.5l-6.6-2.6l2.4-6.3l6.6,2.6l-0.6,1.5l-4.3-1.7l-0.4,1l4.2,1.6l-0.6,1.4L87.5,8l-0.4,1
			L91.5,10.6z"/>
		<path class="st0" d="M104.1,20.5l-2-1.4l1.5-2.1l-2.6-1.9l-1.5,2.1l-2-1.4l4-5.5l2,1.4l-1.5,2l2.6,1.9l1.5-2.1l2,1.4L104.1,20.5z"
			/>
		<path class="st0" d="M105.6,21.9l4.6-4.9l1.8,1.6l-4.6,4.9L105.6,21.9z"/>
		<path class="st0" d="M111,22.4c1.6-1.4,4-1.1,5.8,1.1c1.4,1.6,1.8,3.4,1,4.6l-2-1.8c0.3-0.6,0.2-1.4-0.3-1.8
			c-0.6-0.9-1.9-1-2.7-0.4s-1,1.9-0.4,2.7c0,0.1,0.1,0.1,0.1,0.2c0.8,0.9,1.6,1,2,0.8l0,0l-1.4-1.7l1.1-0.9l2.9,3.4l-3,2.5l-1.1-1.4
			l0.8-0.8c-1.2,0.1-2.3-0.4-2.9-1.4C109.2,25.7,109.5,23.7,111,22.4z"/>
		<path class="st0" d="M119.2,39.6l-1.2-2.1l2.2-1.3l-1.6-2.8l-2.2,1.3l-1.2-2.1l5.9-3.4l1.2,2.1l-2.2,1.3l1.7,2.8l2.2-1.3l1.2,2.1
			L119.2,39.6z"/>
		<path class="st0" d="M126.3,38.9l0.9,2.3l-4.6,1.8l1.6,4l-1.7,0.7l-2.4-6.2L126.3,38.9z"/>
		<path class="st0" d="M122.9,49.2l6.5-1.8l0.6,2.3l-6.5,1.8L122.9,49.2z"/>
		<path class="st0" d="M127.2,52.4c2.1-0.3,3.9,1.2,4.4,4c0.3,2.1-0.3,3.9-1.6,4.5l-0.8-2.5c0.6-0.4,0.9-1.1,0.7-1.7
			c-0.1-1-0.9-1.7-1.9-1.7c-0.1,0-0.2,0-0.4,0.1c-1,0.1-1.7,0.9-1.6,1.9c0,0.1,0,0.2,0.1,0.3c0.2,1.2,0.8,1.8,1.3,1.8l0,0l-0.3-2.2
			l1.4-0.2l0.7,4.5l-3.8,0.6l-0.3-1.9l1.1-0.2c-1.1-0.5-1.7-1.5-1.8-2.7C124,54.3,125.3,52.7,127.2,52.4z"/>
		<path class="st0" d="M125.3,71.3v-2.4h2.6l0.1-3.2l-2.6-0.1v-2.4l6.7,0.1v2.4h-2.5V69h2.5l-0.1,2.4L125.3,71.3z"/>
		<path class="st0" d="M128.6,81l0.4-2.6l-4.8-0.8l0.4-2.4l4.8,0.8l0.4-2.6l1.8,0.3l-1.3,7.5L128.6,81z"/>
		<path class="st0" d="M124.9,80.8l0.8,1.9c-0.9,0.5-1.6,1.4-2,2.4c-0.3,1-0.3,1.5,0.1,1.6s0.4-0.1,0.6-0.6l0.9-1.8
			c0.7-1.6,1.6-2.2,2.8-1.8c1.2,0.4,1.7,2,0.9,4.3c-0.4,1.3-1.1,2.5-2.2,3.4l-0.9-1.7c0.8-0.6,1.4-1.4,1.6-2.3
			c0.2-0.8,0.2-1.2-0.1-1.3s-0.4,0.1-0.7,0.7l-0.7,1.6c-0.8,1.8-1.6,2.3-2.8,2c-1.5-0.5-1.8-2.2-1.1-4.6
			C122.6,83,123.6,81.7,124.9,80.8z"/>
		<path class="st0" d="M121,96.5c0.7,0.4,0.9,1.2,0.5,1.9c-0.4,0.7-1.2,0.9-1.9,0.5s-0.9-1.2-0.5-1.9l0,0
			C119.4,96.3,120.2,96.1,121,96.5C120.9,96.4,121,96.4,121,96.5z"/>
	</g>
</g>
</svg>
