<?xml version="1.0" encoding="utf-8"?>
<!-- Generator: Adobe Illustrator 24.3.0, SVG Export Plug-In . SVG Version: 6.00 Build 0)  -->
<svg version="1.1" id="Layer_1" xmlns="http://www.w3.org/2000/svg" xmlns:xlink="http://www.w3.org/1999/xlink" x="0px" y="0px"
	 viewBox="0 0 282 40" style="enable-background:new 0 0 282 40;" xml:space="preserve">
<style type="text/css">
	.st0{display:none;fill:#00FF00;}
	.st1{display:none;fill:#FFFF00;}
	.st2{display:none;fill:#FF0000;}
	.st3{display:none;fill:#00FFFF;}
	.st4{display:none;fill:#0000FF;}
	.st5{display:none;fill:#FF3F00;}
	.st6{display:none;fill:#FF20FF;}
	.st7{display:none;fill:#FF9B40;}
	.st8{display:none;fill:#FF8A20;}
	.st9{display:none;fill:#FFFFFF;}
	.st10{fill:none;stroke:#FF0000;stroke-miterlimit:10;}
	.st11{font-family:'Arial-Black';}
	.st12{font-size:27px;}
	.st13{fill:none;stroke:#0043FF;stroke-miterlimit:10;}
	.st14{fill:#83FF00;}
	.st15{fill:none;stroke:#000000;stroke-miterlimit:10;}
	.st16{fill:#FF00F3;stroke:#000000;stroke-miterlimit:10;}
	.st17{fill:#C800F9;stroke:#000000;stroke-miterlimit:10;}
	.st18{fill:#008203;stroke:#00FFF8;stroke-miterlimit:10;}
	.st19{fill:#0031FF;stroke:#000000;stroke-miterlimit:10;}
	.st20{fill:#FFFF00;stroke:#FF00F9;stroke-miterlimit:10;}
	.st21{fill:none;stroke:#FF0C00;stroke-miterlimit:10;}
	.st22{fill:#00566D;stroke:#FFFF00;stroke-miterlimit:10;}
	.st23{fill:#EC00FF;stroke:#D89500;stroke-miterlimit:10;}
	.st24{display:none;}
</style>
<polygon class="st0" points="69,35.8 48,35.8 48,5.1 69,5.1 69,13.9 56.8,13.9 56.8,16.1 68.1,16.1 68.1,24.9 56.8,24.9 56.8,27.1 
	69,27.1 "/>
<polygon class="st0" points="157.8,35.8 148.7,35.8 146.3,30.3 140.7,30.3 138.3,35.8 129.1,35.8 143.5,3.5 "/>
<polygon class="st1" points="46.4,35.8 37.6,35.8 37.6,25.1 30.1,32.9 22.7,25.1 22.7,35.8 14,35.8 14,2.9 30.2,20.1 46.4,3 "/>
<polygon class="st2" points="184.4,35.8 163.3,35.8 163.3,5.1 172.2,5.1 172.2,27.3 184.4,27.3 "/>
<path class="st0" d="M250.8,27.3h1.8c3.7,0,6.6-3,6.6-6.8s-2.9-6.8-6.6-6.8h-1.8V27.3z M252.6,35.8H242V5.1h10.7
	c8.5,0,15.4,6.9,15.4,15.4S261.1,35.8,252.6,35.8"/>
<polygon class="st1" points="240.4,37.1 223.2,23.3 223.2,35.8 214.4,35.8 214.4,3.6 231.5,17.5 231.5,5.1 240.4,5.1 "/>
<polygon class="st3" points="213.7,35.8 204.5,35.8 202.1,30.3 196.6,30.3 194.2,35.8 185,35.8 199.3,3.6 "/>
<path class="st2" d="M85.4,36.5c-4.3,0-8.3-1.6-11.2-4.6c-3-3-4.6-6.9-4.6-11.2v-0.1c0-4.2,1.6-8.2,4.6-11.2s7-4.6,11.2-4.6
	c7,0,12.8,4.3,14.8,11c0.5,1.5,0.8,3.3,0.8,3.3h-9c0,0,0-0.4-0.5-1.8c-0.6-2.1-3.3-3.9-6.1-3.9c-4,0-7.2,3.3-7.2,7.3v0.1
	c0,4,3.2,7.3,7.2,7.3c2.9,0,5.2-1.5,6.1-4.1c0.4-1.1,0.4-1.7,0.4-1.7h9c0,0-0.1,1-0.8,3.3C98.1,32.4,92.5,36.5,85.4,36.5"/>
<path class="st4" d="M117.5,36.5c-4.3,0-8.3-1.6-11.2-4.6c-3-3-4.6-6.9-4.6-11.2v-0.1c0-4.2,1.6-8.2,4.6-11.2s7-4.6,11.2-4.6
	c7,0,12.8,4.3,14.8,11c0.5,1.5,0.8,3.3,0.8,3.3h-9c0,0,0-0.4-0.5-1.8c-0.6-2.1-3.3-3.9-6.1-3.9c-4,0-7.2,3.3-7.2,7.3v0.1
	c0,4,3.2,7.3,7.2,7.3c2.9,0,5.2-1.5,6.1-4.1c0.4-1.1,0.4-1.7,0.4-1.7h9c0,0-0.1,1-0.8,3.3C130.2,32.4,124.6,36.5,117.5,36.5"/>
<polygon class="st4" points="68.1,34.8 49,34.8 49,6.1 68.1,6.1 68.1,12.9 55.8,12.9 55.8,17.1 67.2,17.1 67.2,23.9 55.8,23.9 
	55.8,28.1 68.1,28.1 "/>
<path class="st1" d="M142.8,22.9h1.4l-0.7-1.6L142.8,22.9z M156.3,34.8h-7l-2.4-5.5h-6.8l-2.4,5.5h-7l12.8-28.9L156.3,34.8z"/>
<polygon class="st5" points="45.4,34.8 38.6,34.8 38.6,22.6 30.1,31.5 21.7,22.6 21.7,34.8 15,34.8 15,5.4 30.2,21.5 45.4,5.4 "/>
<polygon class="st6" points="183.4,34.8 164.3,34.8 164.3,6.1 171.2,6.1 171.2,28.3 183.4,28.3 "/>
<polygon class="st2" points="239.4,35.1 222.3,21.2 222.3,34.8 215.4,34.8 215.4,5.7 232.5,19.5 232.5,6.1 239.4,6.1 "/>
<path class="st1" d="M198.7,22.9h1.4l-0.7-1.6L198.7,22.9z M212.2,34.8h-7l-2.4-5.5H196l-2.4,5.5h-7L199.3,6L212.2,34.8z"/>
<path class="st4" d="M249.8,28.3h2.8c4.2,0,7.6-3.4,7.6-7.8s-3.3-7.8-7.6-7.8h-2.8V28.3z M252.6,34.8H243V6.1h9.7
	c7.9,0,14.4,6.5,14.4,14.4S260.6,34.8,252.6,34.8"/>
<path class="st0" d="M85.4,35.5c-4,0-7.8-1.5-10.6-4.3c-2.8-2.8-4.3-6.5-4.3-10.5v-0.1c0-4,1.5-7.7,4.3-10.5s6.5-4.3,10.6-4.3
	c6.5,0,12,4,13.9,10.3c0.2,0.7,0.4,1.5,0.5,2.1h-7c-0.1-0.3-0.2-0.7-0.3-1.1c-0.8-2.5-3.9-4.6-7-4.6c-4.5,0-8.1,3.7-8.1,8.2v0.1
	c0,4.5,3.6,8.2,8.1,8.2c3.3,0,5.9-1.8,7-4.7c0.2-0.4,0.3-0.8,0.3-1.1h7c-0.1,0.5-0.3,1.2-0.5,2.1C97.3,31.7,92.1,35.5,85.4,35.5"/>
<path class="st3" d="M117.5,35.5c-4,0-7.8-1.5-10.6-4.3c-2.8-2.8-4.3-6.5-4.3-10.5v-0.1c0-4,1.5-7.7,4.3-10.5s6.5-4.3,10.6-4.3
	c6.5,0,12,4,13.9,10.3c0.2,0.7,0.4,1.5,0.5,2.1h-7c-0.1-0.3-0.2-0.7-0.3-1.1c-0.8-2.5-3.9-4.6-7-4.6c-4.5,0-8.1,3.7-8.1,8.2v0.1
	c0,4.5,3.6,8.2,8.1,8.2c3.3,0,5.9-1.8,7-4.7c0.2-0.4,0.3-0.8,0.3-1.1h7c-0.1,0.5-0.3,1.2-0.5,2.1C129.4,31.7,124.2,35.5,117.5,35.5"
	/>
<polygon class="st2" points="67.2,34 49.8,34 49.8,6.9 67.2,6.9 67.2,12.1 55,12.1 55,17.9 66.3,17.9 66.3,23.1 55,23.1 55,28.9 
	67.2,28.9 "/>
<polygon class="st6" points="44.6,34 39.4,34 39.4,20.6 30.2,30.3 20.9,20.5 20.9,34 15.8,34 15.8,7.4 30.2,22.7 44.6,7.5 "/>
<path class="st2" d="M141.5,23.7h3.9l-1.9-4.4L141.5,23.7z M155.1,34h-5.2l-2.4-5.5h-7.9l-2.4,5.5H132l11.5-26L155.1,34z"/>
<polygon class="st4" points="182.6,34 165.1,34 165.1,6.9 170.4,6.9 170.4,29.1 182.6,29.1 "/>
<path class="st3" d="M249,29.1h3.6c4.7,0,8.4-3.8,8.4-8.6s-3.7-8.6-8.4-8.6H249V29.1z M252.6,34h-8.9V6.9h8.9
	c7.5,0,13.6,6.1,13.6,13.6S260.1,34,252.6,34"/>
<polygon class="st7" points="221.4,34 216.2,34 216.2,7.4 233.3,21.2 233.3,6.9 238.6,6.9 238.6,33.4 221.4,19.5 "/>
<path class="st6" d="M197.4,23.7h3.9l-1.9-4.4L197.4,23.7z M210.9,34h-5.2l-2.4-5.5h-7.9L193,34h-5.2l11.6-26L210.9,34z"/>
<path class="st8" d="M85.4,34.7c-3.8,0-7.3-1.5-10-4.1c-2.6-2.6-4.1-6.2-4.1-9.9v-0.1c0-3.8,1.5-7.3,4.1-9.9s6.2-4.1,10-4.1
	c6.2,0,11.3,3.8,13.1,9.7c0.1,0.3,0.2,0.6,0.3,1h-5.4c-0.1-0.2-0.1-0.4-0.2-0.6c-0.9-2.9-4.3-5.2-7.8-5.2c-4.9,0-8.9,4.1-8.9,9.1
	v0.1c0,5,4,9.1,8.9,9.1c3.6,0,6.6-2,7.8-5.2c0.1-0.2,0.1-0.4,0.2-0.5h5.4c-0.1,0.3-0.2,0.7-0.3,1C96.7,31.1,91.8,34.7,85.4,34.7"/>
<path class="st6" d="M117.5,34.7c-3.8,0-7.3-1.5-10-4.1c-2.6-2.6-4.1-6.2-4.1-9.9v-0.1c0-3.8,1.5-7.3,4.1-9.9s6.2-4.1,10-4.1
	c6.2,0,11.3,3.8,13.1,9.7c0.1,0.3,0.2,0.6,0.3,1h-5.4c-0.1-0.2-0.1-0.4-0.2-0.6c-0.9-2.9-4.3-5.2-7.8-5.2c-4.9,0-8.9,4.1-8.9,9.1
	v0.1c0,5,4,9.1,8.9,9.1c3.6,0,6.6-2,7.8-5.2c0.1-0.2,0.1-0.4,0.2-0.5h5.4c-0.1,0.3-0.2,0.7-0.3,1C128.7,31.1,123.8,34.7,117.5,34.7"
	/>
<polygon class="st9" points="30.2,23.9 16.6,9.5 16.6,33.2 20.1,33.2 20.1,18.5 30.2,29.1 40.3,18.6 40.3,33.2 43.8,33.2 43.8,9.5 
	"/>
<polygon class="st9" points="66.4,11.3 66.4,7.7 50.6,7.7 50.6,33.2 66.4,33.2 66.4,29.7 54.2,29.7 54.2,22.3 65.5,22.3 65.5,18.8 
	54.2,18.8 54.2,11.3 "/>
<path class="st9" d="M85.4,30.5c-5.5,0-9.7-4.5-9.7-9.8v-0.1c0-5.4,4.3-9.8,9.7-9.8c3.9,0,7.5,2.4,8.5,5.8h3.8
	C96,11,91.2,7.5,85.4,7.5c-7.4,0-13.3,5.9-13.3,13.2v0.1C72.1,28.2,78,34,85.4,34c5.9,0,10.6-3.4,12.3-9.1H94
	C92.7,28.4,89.3,30.5,85.4,30.5"/>
<path class="st9" d="M117.5,30.5c-5.5,0-9.7-4.5-9.7-9.8v-0.1c0-5.4,4.3-9.8,9.7-9.8c3.9,0,7.5,2.4,8.5,5.8h3.8
	c-1.7-5.6-6.5-9.1-12.3-9.1c-7.4,0-13.3,5.9-13.3,13.2v0.1c0,7.4,5.9,13.2,13.3,13.2c5.9,0,10.6-3.4,12.3-9.1H126
	C124.7,28.4,121.4,30.5,117.5,30.5"/>
<path class="st9" d="M143.5,17.2l3.2,7.3h-6.3L143.5,17.2z M139,27.7h9l2.4,5.5h3.4L143.5,10l-10.3,23.3h3.4L139,27.7z"/>
<polygon class="st9" points="169.6,7.7 165.9,7.7 165.9,33.2 181.8,33.2 181.8,29.9 169.6,29.9 "/>
<path class="st9" d="M199.3,17.3l3.2,7.3h-6.3L199.3,17.3z M194.9,27.7h9l2.4,5.5h3.4L199.3,10L189,33.2h3.4L194.9,27.7z"/>
<polygon class="st9" points="237.7,31.7 237.7,7.7 234.1,7.7 234.1,22.9 217,9.1 217,33.2 220.6,33.2 220.6,17.8 "/>
<path class="st9" d="M248.2,29.9V11h4.5c5.2,0,9.2,4.2,9.2,9.5s-4,9.5-9.2,9.5h-4.5V29.9z M252.6,33.2c7,0,12.8-5.7,12.8-12.8
	s-5.7-12.8-12.8-12.8h-8.1v25.5L252.6,33.2L252.6,33.2z"/>
<text transform="matrix(1 0 0 1 5.0974 27.4432)"><tspan x="0" y="0" class="st10 st11 st12">L</tspan><tspan x="18" y="0" class="st13 st11 st12">O</tspan><tspan x="40.5" y="0" class="st14 st11 st12">G</tspan><tspan x="63" y="0" class="st15 st11 st12">A</tspan><tspan x="84" y="0" class="st16 st11 st12">N</tspan><tspan x="106.5" y="0" class="st17 st11 st12">Z</tspan><tspan x="126" y="0" class="st18 st11 st12">A</tspan><tspan x="147" y="0" class="st19 st11 st12">B</tspan><tspan x="168" y="0" class="st20 st11 st12">UU</tspan><tspan x="213" y="0" class="st21 st11 st12">R</tspan><tspan x="234" y="0" class="st22 st11 st12">S</tspan><tspan x="253.5" y="0" class="st23 st11 st12">T</tspan></text>
<g class="st24">
</g>
</svg>
